<svg xmlns="http://www.w3.org/2000/svg" xmlns:xlink="http://www.w3.org/1999/xlink" version="1.1" width="256" height="256" viewBox="0 0 256 256" xml:space="preserve">

<defs>
</defs>
<g style="stroke: none; stroke-width: 0; stroke-dasharray: none; stroke-linecap: butt; stroke-linejoin: miter; stroke-miterlimit: 10; fill: none; fill-rule: nonzero; opacity: 1;" transform="translate(1.4065934065934016 1.4065934065934016) scale(2.81 2.81)" >
	<path d="M 34.18 58.298 c 0 1.525 0.774 2.945 2.056 3.772 l 6.332 4.084 c 1.481 0.955 3.384 0.955 4.865 0 l 6.332 -4.084 c 1.281 -0.826 2.055 -2.247 2.055 -3.772 v -12.98 H 34.18 V 58.298 z" style="stroke: none; stroke-width: 1; stroke-dasharray: none; stroke-linecap: butt; stroke-linejoin: miter; stroke-miterlimit: 10; fill: rgb(0,0,0); fill-rule: nonzero; opacity: 1;" transform=" matrix(1 0 0 1 0 0) " stroke-linecap="round" />
	<path d="M 82.287 20.103 H 63.325 v -6.466 c 0 -6.352 -5.168 -11.519 -11.519 -11.519 H 38.195 c -6.352 0 -11.52 5.167 -11.52 11.519 v 6.466 H 7.713 C 3.453 20.103 0 23.556 0 27.816 v 15.949 l 29.68 8.881 V 40.819 h 30.64 v 11.827 L 90 43.765 V 27.816 C 90 23.556 86.547 20.103 82.287 20.103 z M 55.63 20.103 H 34.371 v -6.466 c 0 -2.108 1.715 -3.823 3.824 -3.823 h 13.611 c 2.109 0 3.824 1.715 3.824 3.823 V 20.103 z" style="stroke: none; stroke-width: 1; stroke-dasharray: none; stroke-linecap: butt; stroke-linejoin: miter; stroke-miterlimit: 10; fill: rgb(0,0,0); fill-rule: nonzero; opacity: 1;" transform=" matrix(1 0 0 1 0 0) " stroke-linecap="round" />
	<path d="M 60.32 57.343 v 0.956 c 0 3.065 -1.538 5.889 -4.115 7.552 l -6.333 4.085 c -1.48 0.955 -3.176 1.432 -4.872 1.432 c -1.696 0 -3.392 -0.477 -4.872 -1.431 l -6.332 -4.085 c -2.578 -1.663 -4.117 -4.486 -4.117 -7.553 v -0.956 L 0 48.463 v 31.706 c 0 4.26 3.453 7.713 7.713 7.713 h 74.575 c 4.26 0 7.713 -3.453 7.713 -7.713 V 48.463 L 60.32 57.343 z" style="stroke: none; stroke-width: 1; stroke-dasharray: none; stroke-linecap: butt; stroke-linejoin: miter; stroke-miterlimit: 10; fill: rgb(0,0,0); fill-rule: nonzero; opacity: 1;" transform=" matrix(1 0 0 1 0 0) " stroke-linecap="round" />
</g>
</svg>